<svg width="87" height="20" viewBox="0 0 87 20" fill="none" xmlns="http://www.w3.org/2000/svg">
<path d="M19.2743 2.22497H21.6562C22.515 2.22497 23.3252 2.21673 24.0868 2.20025C24.8646 2.18377 25.5532 2.16728 26.1528 2.1508L26.0312 2.64524C25.4803 2.66172 25.0509 2.72765 24.743 2.84302C24.4352 2.9419 24.1921 3.13968 24.0139 3.43634C23.8518 3.71652 23.6898 4.16152 23.5278 4.77132L20.3194 17.0334C20.1736 17.6267 20.1088 18.0717 20.125 18.3684C20.1574 18.665 20.3032 18.8628 20.5625 18.9617C20.8218 19.0606 21.2187 19.1265 21.7535 19.1595L21.6562 19.6539C21.0567 19.6209 20.3762 19.6044 19.6146 19.6044C18.853 19.588 18.0428 19.5797 17.184 19.5797C16.309 19.5797 15.4745 19.588 14.6806 19.6044C13.9028 19.6044 13.2789 19.6209 12.809 19.6539L12.9062 19.1595C13.4734 19.1265 13.9028 19.0606 14.1944 18.9617C14.5023 18.8628 14.7454 18.665 14.9236 18.3684C15.1018 18.0717 15.2639 17.6267 15.4097 17.0334L18.934 3.70828L8.84722 19.7775H8.3125L6.1493 5.33992L3.32986 16.267C3.21643 16.7285 3.15972 17.1817 3.15972 17.6267C3.17593 18.0552 3.33796 18.4096 3.64583 18.6897C3.9537 18.9699 4.50463 19.1265 5.29861 19.1595L5.20139 19.6539C5.00694 19.6374 4.73148 19.6292 4.375 19.6292C4.03472 19.6127 3.67824 19.6044 3.30555 19.6044C2.93287 19.588 2.60069 19.5797 2.30903 19.5797C1.88773 19.5797 1.46643 19.588 1.04514 19.6044C0.623842 19.6044 0.275463 19.6209 0 19.6539L0.0972222 19.1595C0.664352 19.1265 1.11806 18.9699 1.45833 18.6897C1.81481 18.4096 2.09838 18.0552 2.30903 17.6267C2.51968 17.1817 2.68171 16.7285 2.79514 16.267L5.80903 4.77132C5.97106 4.16152 6.03588 3.71652 6.00347 3.43634C5.97106 3.13968 5.82523 2.9419 5.56597 2.84302C5.32292 2.72765 4.92592 2.66172 4.375 2.64524L4.49653 2.1508C4.95023 2.16728 5.54167 2.18377 6.27083 2.20025C7.0162 2.21673 7.79398 2.22497 8.60416 2.22497C9.00926 2.22497 9.40625 2.21673 9.79514 2.20025C10.184 2.18377 10.5324 2.16728 10.8403 2.1508L12.25 13.424L19.2743 2.22497Z" fill="white"/>
<path d="M32.6963 6.97157C32.4208 6.97157 32.0967 7.21055 31.7241 7.6885C31.3514 8.14998 30.9706 8.77627 30.5817 9.56737C30.1928 10.3585 29.8282 11.2402 29.4879 12.2126C29.1639 13.185 28.8965 14.1821 28.6859 15.204C28.4914 16.2258 28.3942 17.1982 28.3942 18.1211C28.3942 18.6321 28.4266 18.9946 28.4914 19.2089C28.5724 19.4067 28.694 19.5056 28.856 19.5056C29.1153 19.5056 29.4231 19.2831 29.7796 18.8381C30.1523 18.3931 30.525 17.7915 30.8977 17.0334C31.2866 16.2752 31.643 15.4182 31.9671 14.4623C32.3074 13.5064 32.5829 12.5093 32.7935 11.471C33.0042 10.4162 33.1095 9.39431 33.1095 8.40544C33.1095 7.77915 33.069 7.3836 32.9879 7.21879C32.9069 7.05398 32.8097 6.97157 32.6963 6.97157ZM24.3595 15.7973C24.3595 15.0227 24.4648 14.2068 24.6754 13.3498C24.8861 12.4928 25.2102 11.6605 25.6477 10.8529C26.0852 10.0288 26.6361 9.28719 27.3004 8.62794C27.981 7.96869 28.775 7.44953 29.6824 7.07046C30.606 6.67491 31.6511 6.47713 32.8178 6.47713C34.2275 6.47713 35.297 6.83972 36.0261 7.56489C36.7715 8.29007 37.1442 9.32839 37.1442 10.6799C37.1442 11.4545 37.0389 12.2703 36.8282 13.1273C36.6176 13.9843 36.2935 14.8249 35.856 15.6489C35.4185 16.4565 34.8595 17.1899 34.1789 17.8492C33.5146 18.5084 32.7206 19.0358 31.797 19.4314C30.8896 19.8105 29.8525 20 28.6859 20C27.2761 20 26.1986 19.6374 25.4532 18.9122C24.7241 18.1871 24.3595 17.1487 24.3595 15.7973Z" fill="white"/>
<path d="M48.9237 17.5525C48.7778 17.9646 48.7535 18.2447 48.8507 18.3931C48.948 18.5249 49.0695 18.5909 49.2153 18.5909C49.3612 18.5909 49.5475 18.5084 49.7743 18.3436C50.0012 18.1623 50.2443 17.7256 50.5035 17.0334L51.0139 15.6489H51.4757L50.8681 17.4536C50.6412 18.1459 50.3334 18.6733 49.9445 19.0358C49.5718 19.3984 49.1586 19.6457 48.7049 19.7775C48.2674 19.9258 47.8299 20 47.3924 20C46.3554 20 45.6262 19.6869 45.2049 19.0606C44.9781 18.7145 44.8565 18.2695 44.8403 17.7256C44.8403 17.1652 44.9537 16.506 45.1806 15.7478L48.4618 3.1644C48.6239 2.60404 48.6077 2.19201 48.4132 1.92831C48.2188 1.66461 47.7246 1.53276 46.9306 1.53276L47.1007 1.0136C48.4294 0.997115 49.6204 0.906468 50.6737 0.741656C51.7269 0.560362 52.7315 0.313144 53.6875 0L48.9237 17.5525ZM42.8473 18.4672C43.0417 18.4672 43.2767 18.3272 43.5521 18.047C43.8438 17.7668 44.1598 17.3136 44.5 16.6873C44.8403 16.0445 45.1887 15.204 45.5452 14.1656C45.9017 13.1273 46.25 11.8583 46.5903 10.3585L46.2257 13.0284C45.7558 14.5447 45.2859 15.822 44.816 16.8603C44.3623 17.8986 43.8276 18.6815 43.2118 19.2089C42.5961 19.7363 41.8102 20 40.8542 20C40.3033 20 39.7848 19.8764 39.2987 19.6292C38.8287 19.382 38.448 18.9946 38.1563 18.4672C37.8646 17.9398 37.7188 17.2476 37.7188 16.3906C37.7188 15.6654 37.8322 14.8661 38.0591 13.9926C38.2859 13.1026 38.6181 12.2208 39.0556 11.3473C39.5093 10.4738 40.0683 9.66625 40.7327 8.9246C41.397 8.18294 42.1586 7.58962 43.0174 7.14462C43.8924 6.69963 44.8727 6.47713 45.9584 6.47713C46.5903 6.47713 47.0035 6.58426 47.198 6.79852C47.4086 6.99629 47.5382 7.25999 47.5868 7.58962L47.3924 8.08405C47.3276 7.75443 47.2466 7.49897 47.1493 7.31768C47.0521 7.13638 46.8415 7.04573 46.5174 7.04573C46.2257 7.04573 45.8936 7.22703 45.5209 7.58962C45.1482 7.93572 44.7674 8.43016 44.3785 9.07293C44.0058 9.7157 43.6574 10.4574 43.3334 11.2979C43.0093 12.1384 42.75 13.0532 42.5556 14.042C42.3612 15.0144 42.2639 16.0198 42.2639 17.0581C42.2639 17.5196 42.3044 17.8739 42.3855 18.1211C42.4665 18.3519 42.6204 18.4672 42.8473 18.4672Z" fill="white"/>
<path d="M57.3465 18.3189C57.5085 18.3189 57.6786 18.253 57.8569 18.1211C58.0351 17.9893 58.2215 17.7668 58.4159 17.4536C58.6104 17.124 58.821 16.6708 59.0479 16.0939C59.2747 15.5171 59.5178 14.7754 59.777 13.869L59.1451 16.5637C58.8858 17.4372 58.5537 18.1294 58.1486 18.6403C57.7597 19.1347 57.3141 19.4808 56.8118 19.6786C56.3256 19.8929 55.799 20 55.2319 20C54.2111 20 53.4495 19.7363 52.9472 19.2089C52.4611 18.665 52.218 17.8986 52.218 16.9098C52.218 15.9539 52.3719 14.9815 52.6798 13.9926C53.0039 13.0037 53.4333 12.0643 53.968 11.1743C54.5189 10.2678 55.1266 9.46848 55.7909 8.77627C56.4715 8.06757 57.1763 7.50721 57.9055 7.09518C58.6347 6.68315 59.3395 6.47713 60.0201 6.47713C60.5386 6.47713 60.9356 6.64194 61.2111 6.97157C61.5027 7.30119 61.608 7.88628 61.527 8.72682L61.2597 8.87515C61.3407 8.46312 61.3407 8.16646 61.2597 7.98517C61.1786 7.78739 61.0409 7.6885 60.8465 7.6885C60.571 7.6885 60.255 7.8698 59.8986 8.23239C59.5583 8.57849 59.2018 9.06469 58.8291 9.69098C58.4726 10.3008 58.1324 11.0095 57.8083 11.8171C57.5004 12.6082 57.2493 13.4487 57.0548 14.3387C56.8766 15.2287 56.7874 16.1187 56.7874 17.0087C56.7874 17.4701 56.828 17.808 56.909 18.0223C56.99 18.22 57.1358 18.3189 57.3465 18.3189ZM61.843 6.84796C62.7342 6.83148 63.5201 6.79852 64.2006 6.74907C64.8974 6.68315 65.578 6.5925 66.2423 6.47713L62.9611 17.5525C62.88 17.8162 62.8395 18.0305 62.8395 18.1953C62.8557 18.3436 62.8962 18.4508 62.9611 18.5167C63.0421 18.5661 63.1393 18.5909 63.2527 18.5909C63.3986 18.5909 63.5849 18.5084 63.8118 18.3436C64.0386 18.1623 64.2817 17.7256 64.5409 17.0334L65.0513 15.6489H65.5131L64.9055 17.4536C64.6786 18.1459 64.3708 18.6733 63.9819 19.0358C63.6092 19.3984 63.196 19.6457 62.7423 19.7775C62.3048 19.9258 61.8673 20 61.4298 20C60.4414 20 59.7365 19.7116 59.3152 19.1347C59.0722 18.7886 58.9344 18.3354 58.902 17.775C58.8858 17.2147 58.9912 16.5389 59.218 15.7478L61.843 6.84796Z" fill="white"/>
<path d="M79.6597 17.0581C79.7083 17.3712 79.8137 17.6102 79.9757 17.775C80.1377 17.9234 80.3727 17.9975 80.6806 17.9975C81.0046 17.9975 81.2801 17.8986 81.507 17.7009C81.75 17.5031 81.9526 17.1735 82.1146 16.712L82.5278 15.4512H83.0139L82.3819 17.3548C82.0255 18.3272 81.5394 19.0111 80.9236 19.4067C80.3241 19.8022 79.5949 20 78.7361 20C77.7639 20 76.9942 19.8517 76.4271 19.555C75.86 19.2583 75.4387 18.8216 75.1632 18.2447C74.8877 17.6679 74.6933 16.9674 74.5799 16.1434L73.1701 4.62299C73.1215 4.2604 73.0162 4.00494 72.8542 3.85661C72.7083 3.70828 72.4896 3.63412 72.1979 3.63412C71.8901 3.63412 71.6065 3.74949 71.3472 3.98022C71.1042 4.21096 70.8935 4.58179 70.7153 5.09271L70.3021 6.35352H69.816L70.4479 4.44994C70.8044 3.47754 71.3148 2.79357 71.9792 2.39802C72.6597 2.00247 73.4699 1.8047 74.4097 1.8047C75.2685 1.8047 75.9572 1.94479 76.4757 2.22497C77.0104 2.48867 77.4236 2.90894 77.7153 3.48578C78.0069 4.04615 78.2014 4.77132 78.2986 5.66131L79.6597 17.0581ZM84.2535 2.22497C83.9942 2.22497 83.7269 2.28265 83.4514 2.39802C83.1921 2.49691 82.9248 2.64524 82.6493 2.84302C82.1956 3.23857 81.6609 3.88133 81.0451 4.77132C80.4294 5.66131 79.7894 6.78204 79.125 8.1335C78.4769 9.46848 77.8611 11.0177 77.2778 12.7812L77.5451 10.9023C77.9016 9.83107 78.3391 8.75979 78.8576 7.6885C79.3762 6.61722 79.9271 5.64483 80.5104 4.77132C81.0938 3.88133 81.6447 3.18912 82.1632 2.69468C82.8924 2.10136 83.6296 1.8047 84.375 1.8047C85.1852 1.8047 85.8252 2.08488 86.2951 2.64524C86.765 3.18912 87 3.86485 87 4.67244C87 5.54594 86.7407 6.24639 86.2222 6.77379C85.7037 7.28471 85.0799 7.54017 84.3507 7.54017C83.7512 7.54017 83.265 7.35888 82.8924 6.99629C82.5359 6.6337 82.3576 6.12279 82.3576 5.46354C82.3576 4.72188 82.5926 4.07087 83.0625 3.51051C83.5324 2.95014 84.1401 2.58756 84.8854 2.42274C84.8206 2.35682 84.7396 2.30738 84.6424 2.27441C84.5451 2.24145 84.4155 2.22497 84.2535 2.22497ZM68.1875 19.5797C68.4792 19.5797 68.7546 19.522 69.0139 19.4067C69.2894 19.2913 69.5648 19.143 69.8403 18.9617C70.3264 18.5991 70.9097 18.014 71.5903 17.2064C72.2708 16.3988 72.9676 15.377 73.6806 14.1409C74.4097 12.9048 75.0822 11.4792 75.6979 9.86403L75.3333 11.7429C74.9607 12.6988 74.4908 13.663 73.9236 14.6354C73.3727 15.5913 72.7894 16.4648 72.1736 17.2559C71.5579 18.047 70.9502 18.6897 70.3507 19.1842C69.6215 19.7281 68.86 20 68.066 20C67.272 20 66.6401 19.7281 66.1701 19.1842C65.684 18.6238 65.441 17.9398 65.441 17.1323C65.441 16.2588 65.7002 15.5665 66.2188 15.0556C66.7373 14.5282 67.3611 14.2645 68.0903 14.2645C68.706 14.2645 69.1921 14.4458 69.5486 14.8084C69.9051 15.171 70.0833 15.6819 70.0833 16.3412C70.0833 17.0828 69.8484 17.7338 69.3785 18.2942C68.9086 18.8381 68.3009 19.2007 67.5556 19.382C67.6204 19.4479 67.7014 19.4973 67.7986 19.5303C67.8958 19.5632 68.0255 19.5797 68.1875 19.5797Z" fill="white"/>
</svg>
