<svg width="84" height="19" viewBox="0 0 84 19" fill="none" xmlns="http://www.w3.org/2000/svg">
<path d="M13.1517 0.0263155C15.3481 0.0263155 16.9245 0.342105 17.881 0.973684C18.8375 1.60526 19.3158 2.46491 19.3158 3.55263C19.3158 4.46491 19.0058 5.30702 18.3858 6.07895C17.7659 6.85088 16.8803 7.49123 15.7289 8C14.5776 8.49123 13.196 8.7807 11.5841 8.86842C13.7097 8.90351 15.3304 9.29825 16.4463 10.0526C17.5622 10.807 18.1202 11.7544 18.1202 12.8947C18.1202 13.807 17.8987 14.6228 17.4559 15.3421C17.0308 16.0614 16.4197 16.6667 15.6227 17.1579C14.8433 17.6491 13.8957 18.0175 12.7798 18.2632C11.6639 18.5088 10.4328 18.6316 9.08665 18.6316C8.57298 18.6316 7.95303 18.6228 7.22681 18.6053C6.5183 18.5702 5.57952 18.5526 4.41048 18.5526C3.94995 18.5526 3.44513 18.5614 2.89604 18.5789C2.34694 18.5789 1.81556 18.5877 1.30189 18.6053C0.788218 18.6053 0.354255 18.614 0 18.6316L0.106277 18.1053C0.70851 18.0702 1.1779 18 1.51444 17.8947C1.85098 17.7895 2.11667 17.5789 2.31152 17.2632C2.50636 16.9474 2.68348 16.4737 2.8429 15.8421L6.35002 2.78947C6.49173 2.24561 6.56258 1.81579 6.56258 1.5C6.58029 1.16667 6.4563 0.929824 6.19061 0.789473C5.94263 0.631578 5.47324 0.543859 4.78245 0.526315L4.91529 0C5.26955 0.0175436 5.69465 0.0350873 6.19061 0.0526309C6.70428 0.0526309 7.23566 0.0614027 7.78476 0.0789464C8.33385 0.0789464 8.82096 0.0789464 9.24606 0.0789464C10.1317 0.0789464 10.8579 0.0701745 11.4247 0.0526309C12.0093 0.0350873 12.5849 0.0263155 13.1517 0.0263155ZM8.263 9.18421L8.36928 8.73684H10.2026C11.1768 8.73684 11.9827 8.45614 12.6203 7.89474C13.2757 7.33333 13.7717 6.60526 14.1082 5.71053C14.4448 4.81579 14.613 3.88596 14.613 2.92105C14.613 2.2193 14.489 1.64912 14.2411 1.21052C14.0108 0.754385 13.5503 0.526315 12.8595 0.526315C12.3989 0.526315 12.0624 0.649122 11.8498 0.894736C11.6373 1.14035 11.4336 1.64035 11.2387 2.39474L7.65191 15.8421C7.56335 16.193 7.4925 16.5351 7.43936 16.8684C7.40393 17.2018 7.46593 17.4825 7.62534 17.7105C7.78476 17.9211 8.11245 18.0263 8.6084 18.0263C9.54718 18.0263 10.3443 17.7632 10.9996 17.2368C11.655 16.693 12.1598 15.9912 12.5141 15.1316C12.886 14.2719 13.072 13.3596 13.072 12.3947C13.072 11.8158 12.9835 11.2895 12.8063 10.8158C12.6292 10.3246 12.3369 9.92982 11.9295 9.63158C11.5222 9.33333 10.9731 9.18421 10.2823 9.18421H8.263Z" fill="white"/>
<path d="M23.5226 13.0263C24.178 12.7456 24.8068 12.4298 25.409 12.0789C26.0113 11.7105 26.5426 11.3158 27.0032 10.8947C27.694 10.2456 28.2608 9.5 28.7036 8.65789C29.1464 7.79825 29.3678 6.87719 29.3678 5.89474C29.3678 5.59649 29.3324 5.39474 29.2615 5.28947C29.1907 5.18421 29.0844 5.13158 28.9427 5.13158C28.5708 5.13158 28.1634 5.33333 27.7205 5.73684C27.2777 6.12281 26.8438 6.64912 26.4187 7.31579C25.9935 7.96491 25.6039 8.71053 25.2496 9.55263C24.9131 10.3772 24.6385 11.2368 24.426 12.1316C24.2134 13.0088 24.1071 13.8684 24.1071 14.7105C24.1071 15.7105 24.302 16.386 24.6917 16.7368C25.0991 17.0877 25.6216 17.2632 26.2592 17.2632C26.6666 17.2632 27.2246 17.1228 27.9331 16.8421C28.6416 16.5439 29.3413 16.0175 30.0321 15.2632L30.4572 15.4737C30.0852 16.0526 29.5892 16.614 28.9693 17.1579C28.3493 17.7018 27.6231 18.1491 26.7906 18.5C25.9581 18.8333 25.0371 19 24.0274 19C23.2126 19 22.4687 18.8596 21.7956 18.5789C21.1402 18.2982 20.6177 17.886 20.228 17.3421C19.8384 16.7807 19.6435 16.0965 19.6435 15.2895C19.6435 14.307 19.8029 13.3158 20.1218 12.3158C20.4406 11.3158 20.8923 10.3596 21.4768 9.44737C22.0613 8.51754 22.761 7.69298 23.5758 6.97368C24.4083 6.25439 25.3205 5.68421 26.3124 5.26316C27.3043 4.84211 28.3759 4.63158 29.5272 4.63158C30.3775 4.63158 31.0948 4.81579 31.6793 5.18421C32.2639 5.53509 32.5561 6.08772 32.5561 6.8421C32.5561 7.50877 32.3701 8.14035 31.9982 8.73684C31.6262 9.31579 31.1214 9.85088 30.4837 10.3421C29.8638 10.8333 29.1553 11.2719 28.3582 11.6579C27.5788 12.0439 26.7729 12.3772 25.9404 12.6579C25.1079 12.9386 24.2931 13.1579 23.496 13.3158L23.5226 13.0263Z" fill="white"/>
<path d="M32.4604 17.3421C32.4604 16.5702 32.7261 15.9386 33.2575 15.4474C33.7889 14.9561 34.4443 14.7105 35.2236 14.7105C35.8436 14.7105 36.3218 14.8596 36.6584 15.1579C37.0126 15.4386 37.1897 15.8596 37.1897 16.4211C37.1897 16.8596 37.0658 17.2807 36.8178 17.6842C36.5698 18.0702 36.2333 18.386 35.8081 18.6316C35.383 18.8772 34.9048 19 34.3734 19C33.7712 19 33.3018 18.8596 32.9652 18.5789C32.6287 18.2807 32.4604 17.8684 32.4604 17.3421Z" fill="white"/>
<path d="M46.5431 11.1579L46.676 10.6316H47.8716C49.0052 10.6316 49.9528 10.4123 50.7145 9.97368C51.4761 9.51754 52.0872 8.92982 52.5477 8.21053C53.026 7.47368 53.3625 6.68421 53.5574 5.8421C53.7699 4.98246 53.8762 4.14912 53.8762 3.3421C53.8762 2.42982 53.6902 1.73684 53.3182 1.26316C52.964 0.771929 52.3795 0.526315 51.5647 0.526315C51.2636 0.526315 51.0333 0.587719 50.8739 0.710525C50.7322 0.833333 50.6082 1.0614 50.5019 1.39474C50.4134 1.71053 50.2894 2.17544 50.1299 2.78947L46.6228 15.8421C46.4988 16.3509 46.4368 16.7719 46.4368 17.1053C46.4546 17.4211 46.5963 17.6579 46.8619 17.8158C47.1454 17.9737 47.5882 18.0702 48.1904 18.1053L48.0841 18.6316C47.5173 18.5965 46.8531 18.5789 46.0914 18.5789C45.3475 18.5614 44.5593 18.5526 43.7268 18.5526C42.788 18.5526 41.8847 18.5614 41.0167 18.5789C40.1665 18.5789 39.4934 18.5965 38.9975 18.6316L39.1038 18.1053C39.706 18.0702 40.1754 18 40.5119 17.8947C40.8485 17.7895 41.1142 17.5789 41.309 17.2632C41.5038 16.9474 41.681 16.4737 41.8404 15.8421L45.3475 2.78947C45.4715 2.26316 45.5335 1.8421 45.5335 1.52631C45.5335 1.19298 45.4095 0.95614 45.1615 0.815788C44.9135 0.657894 44.453 0.561403 43.7799 0.526315L43.9128 0C44.391 0.0175436 45.0552 0.0350873 45.9055 0.0526309C46.7734 0.0701745 47.6236 0.0789464 48.4561 0.0789464C49.0938 0.0789464 49.7314 0.0701745 50.3691 0.0526309C51.0244 0.0350873 51.6798 0.0263155 52.3352 0.0263155C54.567 0.0263155 56.2143 0.359649 57.2771 1.02632C58.3575 1.69298 58.8978 2.68421 58.8978 4C58.8978 5.36842 58.4195 6.59649 57.463 7.68421C56.5243 8.75439 55.2047 9.60526 53.5042 10.2368C51.8038 10.8509 49.8377 11.1579 47.6059 11.1579H46.5431Z" fill="white"/>
<path d="M62.2224 18.6316H57.9979L61.2394 7.23684C61.3634 6.79824 61.3988 6.49123 61.3457 6.31579C61.3102 6.12281 61.1862 6.02632 60.9737 6.02632C60.6726 6.02632 60.398 6.16667 60.15 6.44737C59.9021 6.71053 59.6452 7.19298 59.3795 7.89474L58.8216 9.36842H58.3168L59.0607 7.3421C59.3087 6.65789 59.6187 6.12281 59.9906 5.73684C60.3626 5.33333 60.7966 5.05263 61.2925 4.89474C61.7885 4.7193 62.311 4.63158 62.8601 4.63158C63.4446 4.63158 63.8963 4.74561 64.2151 4.97368C64.5517 5.18421 64.7819 5.47368 64.9059 5.8421C65.0476 6.21053 65.1096 6.61403 65.0919 7.05263C65.0919 7.47368 65.0388 7.89474 64.9325 8.31579L62.2224 18.6316ZM69.0241 5.18421C68.6699 5.18421 68.2979 5.26316 67.9082 5.42105C67.5186 5.57895 67.1112 5.90351 66.6861 6.39474C66.2609 6.88596 65.8093 7.61403 65.331 8.57895C64.8705 9.52632 64.3834 10.7982 63.8697 12.3947C63.3561 13.9737 62.8247 15.9474 62.2756 18.3158L62.8601 14.6842C63.4092 12.7018 63.9052 11.0702 64.348 9.78947C64.8085 8.49123 65.2602 7.46491 65.703 6.71053C66.1635 5.9386 66.6595 5.40351 67.1909 5.10526C67.7223 4.78947 68.3333 4.63158 69.0241 4.63158C69.7858 4.63158 70.3703 4.85965 70.7777 5.31579C71.1851 5.75439 71.3888 6.30702 71.3888 6.97368C71.3888 7.5 71.2648 8 71.0168 8.47368C70.7866 8.92982 70.4589 9.29825 70.0338 9.57895C69.6264 9.8421 69.157 9.97368 68.6256 9.97368C68.0411 9.97368 67.5894 9.82456 67.2706 9.52632C66.9695 9.22807 66.8189 8.78947 66.8189 8.21053C66.8189 7.73684 66.934 7.29825 67.1643 6.89474C67.3946 6.47368 67.7045 6.12281 68.0942 5.8421C68.4839 5.54386 68.909 5.35088 69.3695 5.26316C69.3164 5.24561 69.2633 5.22807 69.2101 5.21053C69.157 5.19298 69.095 5.18421 69.0241 5.18421Z" fill="white"/>
<path d="M79.3504 5.15789C78.9961 5.15789 78.5976 5.40351 78.1548 5.89474C77.7297 6.38596 77.3046 7.04386 76.8795 7.86842C76.4544 8.69298 76.0647 9.61403 75.7104 10.6316C75.3562 11.6491 75.0728 12.693 74.8602 13.7632C74.6477 14.8333 74.5414 15.8596 74.5414 16.8421C74.5414 17.4386 74.5945 17.8596 74.7008 18.1053C74.8248 18.3509 75.0108 18.4737 75.2588 18.4737C75.5953 18.4737 75.9761 18.2456 76.4012 17.7895C76.8263 17.3158 77.2426 16.6842 77.65 15.8947C78.0751 15.0877 78.4648 14.1842 78.819 13.1842C79.1733 12.1667 79.4567 11.114 79.6692 10.0263C79.8995 8.9386 80.0146 7.87719 80.0146 6.8421C80.0146 6.14035 79.9526 5.68421 79.8286 5.47368C79.7047 5.26316 79.5452 5.15789 79.3504 5.15789ZM70.556 14.6053C70.556 13.7807 70.6712 12.9123 70.9014 12C71.1317 11.0877 71.4771 10.2018 71.9376 9.3421C72.3981 8.46491 72.9827 7.67544 73.6912 6.97368C74.4174 6.25439 75.2588 5.68421 76.2152 5.26316C77.1717 4.84211 78.2611 4.63158 79.4832 4.63158C80.9357 4.63158 82.0516 5.00877 82.831 5.76316C83.6103 6.51754 84 7.60526 84 9.02632C84 9.85088 83.8849 10.7193 83.6546 11.6316C83.4243 12.5439 83.0789 13.4386 82.6184 14.3158C82.1579 15.1754 81.5645 15.9649 80.8383 16.6842C80.1298 17.386 79.2973 17.9474 78.3408 18.3684C77.3843 18.7895 76.2949 19 75.0728 19C73.6203 19 72.5044 18.6228 71.7251 17.8684C70.9457 17.114 70.556 16.0263 70.556 14.6053Z" fill="white"/>
</svg>
